<svg xmlns="http://www.w3.org/2000/svg" width="180" height="126" viewBox="0 0 180 126">
    <g fill="none" fill-rule="evenodd">
        <path fill="#A40044" d="M0 0h180v126H0z"/>
        <g fill-rule="nonzero">
            <path fill="#FFF" d="M93.235 28.7L61 60.935 78.065 78 110.3 45.765l-2.844-14.22z"/>
            <path fill="#A40044" d="M76.599 62.402a2.857 2.857 0 0 0-.841-1.927 2.88 2.88 0 0 0-4.069 0l-2.956 2.956 6.834 6.836 2.956-2.957a2.856 2.856 0 0 0 .844-2.035c0-.769-.3-1.492-.844-2.035a2.864 2.864 0 0 0-1.924-.838zm.621 3.604l-1.653 1.653-4.227-4.228 1.653-1.653a1.037 1.037 0 0 1 1.462 0c.195.196.303.455.303.731 0 .277-.108.536-.303.731l-1.383 1.383 1.303 1.304 1.383-1.383a1.037 1.037 0 0 1 1.462 0c.195.196.303.455.303.731 0 .277-.108.536-.303.731zM92.515 39.758l-1.548 1.548 6.725 6.727 1.548-1.549a4.728 4.728 0 0 0 1.393-3.363c0-1.27-.495-2.465-1.393-3.363a4.76 4.76 0 0 0-6.725 0zm5.443 5.444l-.266.265-4.16-4.16.266-.266a2.945 2.945 0 0 1 4.16 0c.555.556.861 1.294.861 2.08s-.306 1.524-.861 2.08zM82.25 63.647l-5.902-5.531 1.764-1.653a1.16 1.16 0 0 1 1.56 0 .995.995 0 0 1 .323.73.994.994 0 0 1-.323.732l-1.476 1.382 1.39 1.304 1.425-1.335 3.688 2.074 1.434-1.344-4.217-2.372c.023-.145.046-.291.046-.441a2.77 2.77 0 0 0-.9-2.035c-1.197-1.122-3.144-1.122-4.341 0l-3.154 2.957 7.292 6.835 1.39-1.303zM88.015 58.248l-2.939-2.939 2.533-2.533 2.94 2.939 1.384-1.385-7.263-7.263-5.303 5.303 7.263 7.263 1.385-1.385zm-5.878-5.878l2.533-2.533 1.554 1.554-2.533 2.533-1.554-1.554zM97.733 48.53l-7.263-7.263-1.385 1.385 4.282 4.283-7.136-1.428-1.064 1.063 7.263 7.263 1.385-1.385-4.283-4.283 7.137 1.429z"/>
            <path fill="#FFF" d="M108.85 20c-5.434 0-9.87 4.295-10.126 9.667h1.934c.252-4.306 3.824-7.734 8.192-7.734 4.53 0 8.217 3.686 8.217 8.217 0 4.53-3.686 8.217-8.217 8.217a8.24 8.24 0 0 1-2.707-.474c.185-.451.29-.942.29-1.46a3.87 3.87 0 0 0-3.866-3.866 3.87 3.87 0 0 0-3.867 3.866 3.87 3.87 0 0 0 3.867 3.867c.88 0 1.682-.307 2.332-.803 1.227.517 2.563.803 3.951.803 5.597 0 10.15-4.553 10.15-10.15S114.447 20 108.85 20zm-4.35 16.433c0 .216-.043.419-.108.612a8.185 8.185 0 0 1-2.428-2.44c.19-.063.39-.105.603-.105 1.066 0 1.933.867 1.933 1.933zm-1.933 1.934a1.935 1.935 0 0 1-1.933-1.934c0-.102.014-.2.03-.298a10.09 10.09 0 0 0 2.21 2.2c-.1.017-.202.032-.307.032z"/>
        </g>
        <text fill="#FFF" font-family="CenturyGothic, Century Gothic" font-size="17" transform="translate(61 85)">
            <tspan x="0" y="17">BRAND</tspan>
        </text>
    </g>
</svg>
