<svg xmlns="http://www.w3.org/2000/svg" width="180" height="126" viewBox="0 0 180 126">
    <g fill="none" fill-rule="evenodd">
        <path fill="#6DA0BC" d="M0 0h180v126H0z"/>
        <g fill="#FFF">
            <path fill-rule="nonzero" d="M74.611 51v2.813H52.39V51H74.61zM76 65.063h-1.389V73.5h-2.778v-8.438h-5.555V73.5h-13.89v-8.438H51V62.25l1.389-7.031H74.61L76 62.25v2.813zm-12.5 5.624v-5.624h-8.333v5.624H63.5zM128.611 51v2.813H106.39V51h22.222zM130 65.063h-1.389V73.5h-2.778v-8.438h-5.555V73.5h-13.89v-8.438H105V62.25l1.389-7.031h22.222L130 62.25v2.813zm-12.5 5.624v-5.624h-8.333v5.624h8.333zM90.7 49.052c.537 0 .964.445.964.964v7.82l6.56 4.263a.96.96 0 0 1 .278 1.334.952.952 0 0 1-.815.445.927.927 0 0 1-.52-.148L90.7 59.522l-6.468 4.207a.996.996 0 0 1-.519.148.997.997 0 0 1-.815-.445.96.96 0 0 1 .278-1.334l6.56-4.263v-7.82c0-.538.427-.964.964-.964zM101.611 21v2.813H79.39V21h22.222zM103 35.063h-1.389V43.5h-2.778v-8.438h-5.555V43.5h-13.89v-8.438H78V32.25l1.389-7.031h22.222L103 32.25v2.813zm-12.5 5.624v-5.624h-8.333v5.624H90.5z"/>
            <text font-family="CenturyGothic, Century Gothic" font-size="17" transform="translate(50 21)">
                <tspan x="0" y="81">CHANNEL</tspan>
            </text>
        </g>
    </g>
</svg>
