<svg xmlns="http://www.w3.org/2000/svg" width="50" height="55" viewBox="0 0 50 55">
    <path fill="#FFF" fill-rule="nonzero" d="M25 31.574c-3.95 0-13.235-4.649-13.235-15.787C11.765 7.067 12.968 0 25 0s13.235 7.068 13.235 15.787c0 11.138-9.285 15.787-13.235 15.787zM13.743 13.152c-.038.87-.052 1.754-.052 2.635 0 5.444 2.458 8.818 4.52 10.689C20.81 28.834 23.696 29.69 25 29.69c1.305 0 4.19-.856 6.788-3.214 2.063-1.871 4.52-5.245 4.52-10.69 0-.992-.015-1.988-.066-2.965-12.656 2.746-15.234-3.37-15.234-3.37-4.324-.09-6.335 1.943-7.265 3.701zm36.245 33.91a.8.8 0 0 1-.042.426c-.117.303-3.115 7.423-24.946 7.423C3.169 54.91.17 47.79.054 47.488a.8.8 0 0 1-.042-.426c.253-1.446 1.681-8.76 4.948-10.78 1.93-1.195 8.773-4.58 11.625-5.979.33-.162.733-.13 1.028.083 1.512 1.09 3.168 1.825 4.923 2.184.31.063.564.265.677.538L25 37.433l1.787-4.325a.924.924 0 0 1 .677-.538c1.755-.36 3.411-1.094 4.923-2.184a1.013 1.013 0 0 1 1.028-.083l.05.025c2.886 1.416 9.646 4.733 11.584 5.96 2.837 1.796 4.252 6.85 4.939 10.774z"/>
</svg>
