<svg xmlns="http://www.w3.org/2000/svg" width="50" height="50" viewBox="0 0 50 50">
    <path fill="#FFF" fill-rule="nonzero" d="M25.396 18.623a3.145 3.145 0 0 0-2.15-.83.173.173 0 0 1-.142-.073.149.149 0 0 1-.012-.151l5.03-10.36c.599-1.232 2.154-1.779 3.475-1.221l14.938 6.304a2.52 2.52 0 0 1 1.373 1.367 2.293 2.293 0 0 1-.065 1.873l-1.181 2.435a.382.382 0 0 1-.256.2.411.411 0 0 1-.329-.058c-.382-.263-1.036-.604-1.855-.604a3.14 3.14 0 0 0-2.14.822l-2.909 2.713a.432.432 0 0 1-.294.114.43.43 0 0 1-.294-.114l-2.857-2.663a3.142 3.142 0 0 0-2.149-.83 3.14 3.14 0 0 0-2.14.821l-2.864 2.672a.432.432 0 0 1-.294.114.432.432 0 0 1-.294-.114l-2.591-2.417zM4.856 17.25l-.945-3.257a1.625 1.625 0 0 1 1.1-2.012A2.608 2.608 0 0 0 6.775 8.75l-.703-2.42 8.48-2.484.703 2.42a2.595 2.595 0 0 0 3.219 1.773c.857-.25 1.75.243 2.001 1.102l2.586 8.907a.389.389 0 0 1-.1.386c-.499.49-1.984 1.969-2.617 2.6a.412.412 0 0 1-.583-.002l-2.575-2.587a3 3 0 0 0-2.135-.889c-.8 0-1.556.312-2.126.88l-2.582 2.593a.412.412 0 0 1-.586-.002c-.62-.634-2.058-2.095-2.57-2.581-.795-.755-1.546-.887-1.944-.896a.413.413 0 0 1-.387-.299zM6.083 5.77l-.22-.954a3.598 3.598 0 0 1 .191-2.22c.295-.679.791-1.182 1.38-1.398l2.938-1.08c1.226-.45 2.51.437 2.869 1.984l.22.958-7.378 2.71zm43.511 18.18c.26.268.406.63.406 1.008V50H0V24.957c0-.378.146-.74.406-1.007l4.16-4.274a.452.452 0 0 1 .647 0l4.24 4.359a.453.453 0 0 0 .323.137c.122 0 .237-.05.324-.137l4.243-4.359a.452.452 0 0 1 .323-.137c.122 0 .237.05.323.137l4.242 4.359a.454.454 0 0 0 .323.137c.122 0 .237-.05.323-.137l4.244-4.359a.452.452 0 0 1 .323-.137c.122 0 .237.05.323.137l4.242 4.359a.454.454 0 0 0 .323.137c.122 0 .237-.05.323-.137l4.499-4.622a.453.453 0 0 1 .646 0l4.5 4.622a.448.448 0 0 0 .646 0l4.542-4.667a.45.45 0 0 1 .646 0l4.46 4.582z"/>
</svg>
