<svg xmlns="http://www.w3.org/2000/svg" width="74" height="50" viewBox="0 0 74 50">
    <path fill="#FFF" fill-rule="nonzero" d="M22.117 28.972V31.6H1.3v-2.628h20.816zm1.3 13.142h-1.3V50h-2.602v-7.886H14.31V50H1.3v-7.886H0v-2.628l1.301-6.571h20.816l1.3 6.571v2.628zM11.71 47.371v-5.257H3.903v5.257h7.806zm60.99-18.399V31.6H51.883v-2.628H72.7zM74 42.114h-1.301V50h-2.602v-7.886h-5.204V50h-13.01v-7.886h-1.3v-2.628l1.3-6.571H72.7L74 39.486v2.628zm-11.709 5.257v-5.257h-7.806v5.257h7.806zm-25.104-20.22c.504 0 .903.415.903.9v7.31l6.145 3.983a.897.897 0 0 1 .26 1.247.892.892 0 0 1-.763.416.87.87 0 0 1-.486-.139l-6.059-3.932-6.058 3.932a.935.935 0 0 1-.486.139.934.934 0 0 1-.764-.416.897.897 0 0 1 .26-1.247l6.146-3.984v-7.309c0-.502.399-.9.902-.9zM47.407.934v2.628H26.593V.935h20.816zm1.302 13.142h-1.301v7.886h-2.602v-7.886h-5.204v7.886h-13.01v-7.886h-1.3V11.45l1.3-6.572h20.816l1.3 6.572v2.628zM37 19.334v-5.257h-7.806v5.257H37z"/>
</svg>
