<svg xmlns="http://www.w3.org/2000/svg" width="180" height="126" viewBox="0 0 180 126">
    <g fill="none" fill-rule="evenodd">
        <path fill="#00AAD4" d="M0 0h180v126H0z"/>
        <g fill="#FFF">
            <path fill-rule="nonzero" d="M89.364 41.133a2.893 2.893 0 0 0-1.977-.764.16.16 0 0 1-.131-.067.137.137 0 0 1-.011-.139l4.627-9.531c.551-1.133 1.982-1.636 3.197-1.123l13.743 5.8a2.32 2.32 0 0 1 1.263 1.258 2.11 2.11 0 0 1-.06 1.723l-1.086 2.24a.352.352 0 0 1-.235.184.378.378 0 0 1-.303-.054c-.351-.241-.953-.556-1.706-.556-.742 0-1.442.269-1.97.756l-2.676 2.497a.397.397 0 0 1-.27.105.396.396 0 0 1-.27-.105l-2.63-2.45a2.89 2.89 0 0 0-1.976-.764 2.89 2.89 0 0 0-1.97.756l-2.634 2.458a.397.397 0 0 1-.27.105.397.397 0 0 1-.271-.105l-2.384-2.224zm-18.897-1.262l-.869-2.997c-.23-.79.223-1.62 1.012-1.851a2.399 2.399 0 0 0 1.623-2.973l-.647-2.226 7.803-2.286.646 2.228a2.387 2.387 0 0 0 2.961 1.63c.788-.23 1.61.224 1.841 1.014l2.38 8.195a.358.358 0 0 1-.093.354c-.459.452-1.825 1.811-2.408 2.392a.379.379 0 0 1-.536-.001l-2.369-2.38a2.76 2.76 0 0 0-1.964-.818c-.736 0-1.432.287-1.956.809l-2.375 2.385a.38.38 0 0 1-.54-.002c-.57-.582-1.893-1.927-2.364-2.374-.731-.694-1.422-.815-1.789-.824a.38.38 0 0 1-.356-.275zm1.13-10.563l-.204-.878a3.31 3.31 0 0 1 .177-2.043c.27-.624.727-1.087 1.27-1.286l2.702-.993c1.128-.415 2.31.402 2.64 1.825l.203.881-6.788 2.494zm40.03 16.726c.239.245.373.579.373.927V70H66V46.96c0-.347.134-.68.374-.926l3.827-3.932a.416.416 0 0 1 .595 0l3.9 4.01c.08.08.186.127.298.127a.418.418 0 0 0 .298-.127l3.903-4.01a.416.416 0 0 1 .298-.127c.112 0 .218.046.297.127l3.902 4.01c.08.08.186.127.298.127a.417.417 0 0 0 .297-.127l3.904-4.01a.416.416 0 0 1 .297-.127c.113 0 .218.046.298.127l3.902 4.01c.08.08.185.127.297.127a.418.418 0 0 0 .298-.127l4.138-4.252a.416.416 0 0 1 .595 0l4.14 4.252a.412.412 0 0 0 .594 0l4.179-4.293a.415.415 0 0 1 .595 0l4.103 4.215z"/>
            <text font-family="CenturyGothic, Century Gothic" font-size="17" transform="translate(48 24)">
                <tspan x="0" y="74">PRODUCT</tspan>
            </text>
        </g>
    </g>
</svg>
