<svg xmlns="http://www.w3.org/2000/svg" xmlns:xlink="http://www.w3.org/1999/xlink" width="360" height="112" viewBox="0 0 360 112">
    <defs>
        <path id="b" d="M0 0h360v108H0z"/>
        <filter id="a" width="102.2%" height="107.4%" x="-1.1%" y="-1.9%" filterUnits="objectBoundingBox">
            <feOffset dy="2" in="SourceAlpha" result="shadowOffsetOuter1"/>
            <feGaussianBlur in="shadowOffsetOuter1" result="shadowBlurOuter1" stdDeviation="1"/>
            <feColorMatrix in="shadowBlurOuter1" values="0 0 0 0 0 0 0 0 0 0 0 0 0 0 0 0 0 0 0.24 0"/>
        </filter>
    </defs>
    <g fill="none" fill-rule="evenodd">
        <g>
            <use fill="#000" filter="url(#a)" xlink:href="#b"/>
            <use fill="#005581" xlink:href="#b"/>
        </g>
        <path d="M155 15h50v50h-50z"/>
        <path fill="#FFF" fill-rule="nonzero" d="M180 43.75c-3.357 0-11.25-4.233-11.25-14.375C168.75 21.435 169.773 15 180 15s11.25 6.436 11.25 14.375c0 10.142-7.893 14.375-11.25 14.375zm-9.569-16.774a58.889 58.889 0 0 0-.043 2.399c0 4.958 2.089 8.03 3.842 9.733 2.209 2.147 4.66 2.926 5.77 2.926 1.11 0 3.561-.779 5.77-2.926 1.753-1.704 3.842-4.775 3.842-9.733 0-.904-.013-1.811-.057-2.7-10.757 2.5-12.948-3.069-12.948-3.069-3.676-.082-5.385 1.769-6.176 3.37zm30.809 30.877a.776.776 0 0 1-.036.389c-.1.275-2.648 6.758-21.204 6.758-18.557 0-21.105-6.483-21.204-6.758a.778.778 0 0 1-.036-.39c.215-1.315 1.43-7.975 4.206-9.815 1.64-1.088 7.457-4.17 9.882-5.444a.812.812 0 0 1 .873.075c1.285.993 2.693 1.662 4.185 1.989.263.058.48.242.575.49L180 49.086l1.519-3.939a.798.798 0 0 1 .575-.49c1.492-.327 2.9-.996 4.185-1.989a.813.813 0 0 1 .873-.075l.043.022c2.453 1.29 8.2 4.31 9.846 5.427 2.412 1.636 3.615 6.238 4.199 9.81z"/>
        <text fill="#FFF" font-family="CenturyGothic, Century Gothic" font-size="15">
            <tspan x="150" y="90">RETAILER</tspan>
        </text>
    </g>
</svg>
