<svg xmlns="http://www.w3.org/2000/svg" width="26" height="19" viewBox="0 0 26 19">
    <path fill="#000" fill-rule="nonzero" d="M.912 12.126V1.11A1.11 1.11 0 0 1 2.025 0h11.057a1.11 1.11 0 0 1 1.113 1.109v11.017a.37.37 0 0 1-.371.37H1.284a.37.37 0 0 1-.372-.37zm8.929 3.775c0 1.27-1.034 2.299-2.309 2.299a2.304 2.304 0 0 1-2.308-2.3c0-1.27 1.033-2.298 2.308-2.298A2.304 2.304 0 0 1 9.841 15.9zm-1.155 0c0-.635-.516-1.15-1.154-1.15-.637 0-1.154.515-1.154 1.15 0 .635.517 1.15 1.154 1.15.638 0 1.154-.515 1.154-1.15zm-3.142-2.3H.37a.37.37 0 0 0-.371.37v1.121c0 .204.166.37.371.37h4.146a3.03 3.03 0 0 1 1.027-1.86zm16.375 2.3c0 1.27-1.034 2.299-2.309 2.299a2.304 2.304 0 0 1-2.308-2.3c0-1.27 1.034-2.298 2.308-2.298A2.304 2.304 0 0 1 21.92 15.9zm-1.154 0c0-.635-.517-1.15-1.155-1.15-.637 0-1.154.515-1.154 1.15 0 .635.517 1.15 1.154 1.15.638 0 1.155-.515 1.155-1.15zM26 13.97v1.121a.37.37 0 0 1-.371.37h-3.004a3.049 3.049 0 0 0-6.03 0h-6.048a3.03 3.03 0 0 0-1.027-1.86h5.736V3.031a.74.74 0 0 1 .742-.74H19.5c.986 0 1.908.489 2.46 1.303l2.258 3.33c.331.49.508 1.066.508 1.655v5.021h.903a.37.37 0 0 1 .371.37zm-3.764-6.96l-1.805-2.555a.372.372 0 0 0-.304-.157h-2.816a.37.37 0 0 0-.371.37v2.555c0 .204.166.37.37.37h4.623a.37.37 0 0 0 .303-.583z"/>
</svg>
