<svg xmlns="http://www.w3.org/2000/svg" width="24" height="24" viewBox="0 0 24 24">
    <g fill="none" fill-rule="nonzero">
        <path fill="#000" d="M23.692 13.325l-.372-.496a1.54 1.54 0 0 1-.015-1.825l.362-.501a1.548 1.548 0 0 0-.553-2.282l-.552-.29a1.55 1.55 0 0 1-.818-1.638l.106-.605c.16-.924-.547-1.78-1.506-1.82l-.627-.024a1.594 1.594 0 0 1-1.466-1.126l-.176-.59c-.266-.905-1.28-1.372-2.163-.999l-.577.241a1.613 1.613 0 0 1-1.817-.393l-.416-.458a1.613 1.613 0 0 0-2.39.02l-.41.462a1.618 1.618 0 0 1-1.813.418l-.582-.236c-.888-.359-1.892.128-2.148 1.033l-.166.595a1.578 1.578 0 0 1-1.445 1.146l-.628.034c-.958.055-1.65.92-1.475 1.845l.115.604a1.549 1.549 0 0 1-.793 1.648l-.547.3a1.543 1.543 0 0 0-.512 2.287l.372.496a1.54 1.54 0 0 1 .015 1.825l-.362.501a1.548 1.548 0 0 0 .553 2.282l.552.29c.602.315.933.974.818 1.638l-.106.605c-.16.924.547 1.78 1.506 1.82l.627.024c.683.03 1.275.482 1.466 1.126l.176.59c.266.905 1.28 1.372 2.163.999l.577-.241a1.613 1.613 0 0 1 1.817.393l.416.458a1.613 1.613 0 0 0 2.39-.02l.41-.462a1.618 1.618 0 0 1 1.813-.418l.582.236c.888.359 1.892-.128 2.148-1.033l.166-.595c.18-.65.763-1.112 1.445-1.146l.628-.034c.958-.055 1.65-.92 1.475-1.845l-.115-.604a1.549 1.549 0 0 1 .793-1.648l.547-.3a1.542 1.542 0 0 0 .512-2.287z"/>
        <path fill="#FFF" stroke="#FFF" stroke-width=".25" d="M4.75 9.678l.327.064-.101.519c.169-.172.347-.29.536-.356a1.13 1.13 0 0 1 .597-.038c.364.071.648.276.851.615.204.34.266.712.187 1.118-.081.415-.278.743-.591.982-.313.24-.651.325-1.014.254a1.18 1.18 0 0 1-.536-.25 1.482 1.482 0 0 1-.383-.507l-.295 1.517L4 13.532l.75-3.854zm1.265.534a.947.947 0 0 0-.786.19 1.21 1.21 0 0 0-.453.762 1.28 1.28 0 0 0 .018.604c.054.188.153.348.296.48a.984.984 0 0 0 .486.25.923.923 0 0 0 .53-.054c.176-.071.328-.188.456-.352a1.262 1.262 0 0 0 .223-1.14 1.072 1.072 0 0 0-.29-.492.944.944 0 0 0-.48-.248zm1.839.07l.337.065-.08.413c.132-.143.262-.244.389-.303a.6.6 0 0 1 .372-.053.573.573 0 0 1 .274.153l-.232.273a.433.433 0 0 0-.165-.083.465.465 0 0 0-.347.087c-.121.08-.229.219-.323.417-.072.153-.156.474-.251.964l-.185.954-.337-.065.548-2.822zm2.728.455c.394.076.69.297.888.662.18.333.232.696.156 1.088a1.581 1.581 0 0 1-.575.961 1.222 1.222 0 0 1-1.046.256 1.225 1.225 0 0 1-.877-.63 1.581 1.581 0 0 1-.172-1.106c.076-.39.26-.707.55-.948.321-.266.68-.36 1.076-.283zm-.07.355a.925.925 0 0 0-.769.198c-.24.184-.39.435-.452.751-.04.204-.032.403.024.597.055.194.15.354.283.48a.94.94 0 0 0 .474.24.94.94 0 0 0 .53-.046c.171-.066.319-.179.442-.338.124-.159.206-.34.246-.544a1.201 1.201 0 0 0-.139-.867c-.154-.261-.366-.418-.638-.471zm1.942.084l.328.064-.095.487c.15-.157.293-.266.43-.325a.952.952 0 0 1 .558-.064.821.821 0 0 1 .57.416c.053.103.09.242.109.418.153-.2.323-.34.51-.424a.93.93 0 0 1 .567-.069.795.795 0 0 1 .441.24.887.887 0 0 1 .223.47c.031.19.013.46-.056.814l-.299 1.54-.337-.065.3-1.541c.058-.303.08-.514.062-.635a.565.565 0 0 0-.469-.483.71.71 0 0 0-.47.07.906.906 0 0 0-.371.359c-.095.16-.182.443-.26.848l-.215 1.105-.328-.064.28-1.444c.067-.341.093-.576.078-.705a.59.59 0 0 0-.145-.333.555.555 0 0 0-.32-.176.706.706 0 0 0-.457.068.906.906 0 0 0-.374.351c-.097.16-.18.415-.248.768l-.233 1.195-.327-.063.548-2.822zm5.7 1.033c.394.076.69.297.888.662.18.333.232.696.156 1.088a1.581 1.581 0 0 1-.575.96 1.222 1.222 0 0 1-1.046.256 1.225 1.225 0 0 1-.877-.629 1.581 1.581 0 0 1-.172-1.106c.076-.39.26-.707.55-.948.321-.266.68-.36 1.076-.283zm-.07.355a.925.925 0 0 0-.77.197c-.239.185-.39.436-.45.752-.04.204-.033.403.022.597.056.194.15.353.284.479a.94.94 0 0 0 .474.242.94.94 0 0 0 .53-.047c.171-.066.319-.179.442-.338.124-.159.206-.34.246-.544a1.201 1.201 0 0 0-.139-.867c-.154-.261-.367-.418-.638-.471z"/>
    </g>
</svg>
