<svg xmlns="http://www.w3.org/2000/svg" width="22" height="22" viewBox="0 0 22 22">
    <path fill="#000" fill-rule="nonzero" d="M6.6 17.6c-1.21 0-2.2.99-2.2 2.2 0 1.21.99 2.2 2.2 2.2 1.21 0 2.2-.99 2.2-2.2 0-1.21-.99-2.2-2.2-2.2zM0 0v2.2h2.2l3.96 8.36-1.54 2.64c-.11.33-.22.77-.22 1.1 0 1.21.99 2.2 2.2 2.2h13.2v-2.2H7.04c-.11 0-.22-.11-.22-.22v-.11l.99-1.87h8.14c.88 0 1.54-.44 1.87-1.1l3.96-7.15c.22-.22.22-.33.22-.55 0-.66-.44-1.1-1.1-1.1H4.62L3.63 0H0zm17.6 17.6c-1.21 0-2.2.99-2.2 2.2 0 1.21.99 2.2 2.2 2.2 1.21 0 2.2-.99 2.2-2.2 0-1.21-.99-2.2-2.2-2.2z"/>
</svg>
