<svg xmlns="http://www.w3.org/2000/svg" width="28" height="28" viewBox="0 0 28 28">
    <g fill="none" fill-rule="evenodd">
        <path fill="#FFF" fill-opacity=".2" d="M0 0h28v28H0z"/>
        <path fill="#000" fill-rule="nonzero" stroke="#000" stroke-width=".1" d="M18.572 14.766c.798 0 1.447.683 1.447 1.522v2.352c0 .84-.65 1.522-1.447 1.522h-2.917c-.798 0-1.447-.682-1.447-1.522v-2.352c0-.84.649-1.522 1.447-1.522h2.917zm.394 3.874v-2.352a.407.407 0 0 0-.394-.415h-2.917a.406.406 0 0 0-.395.415v2.352c0 .226.176.416.395.416h2.917a.406.406 0 0 0 .394-.416zM25 11.007c0 1.235-.782 2.295-1.897 2.763a.217.217 0 0 1 .004.056v8.992a.53.53 0 0 1-.539.515H5.428a.53.53 0 0 1-.54-.515v-9.057C3.778 13.294 3 12.238 3 11.007c0-.09.027-.176.072-.253L6.34 5.262A.538.538 0 0 1 6.808 5h14.38c.193 0 .373.103.467.262l3.273 5.492c.05.077.072.163.072.253zM7.122 6.034L4.57 10.329H23.43l-2.558-4.295H7.123zm11.535 5.32h-4.082c.171.927 1.02 1.63 2.041 1.63 1.02 0 1.87-.703 2.041-1.63zm-5.228 0H9.343c.175.927 1.025 1.63 2.045 1.63s1.87-.703 2.041-1.63zm-9.314 0c.17.927 1.02 1.635 2.04 1.63 1.021 0 1.875-.703 2.046-1.63H4.115zm7.948 10.95h.004v-5.557c0-.407-.346-.733-.769-.733H9.73c-.427 0-.768.33-.768.733v5.557h3.102zm9.966 0v-8.29c-.063 0-.122.005-.185.005a3.194 3.194 0 0 1-2.616-1.33 3.186 3.186 0 0 1-2.612 1.33 3.192 3.192 0 0 1-2.612-1.33 3.2 3.2 0 0 1-2.616 1.33 3.194 3.194 0 0 1-2.616-1.33 3.194 3.194 0 0 1-2.616 1.33c-.063 0-.126 0-.19-.005v8.294h1.911v-5.56c0-.975.832-1.764 1.848-1.764h1.569c1.02 0 1.847.794 1.847 1.763v5.557h8.888zm-.185-9.315c1.02 0 1.87-.708 2.046-1.63h-4.087c.171.926 1.02 1.63 2.041 1.63z"/>
    </g>
</svg>
