<svg xmlns="http://www.w3.org/2000/svg" width="22" height="19" viewBox="0 0 22 19">
    <path fill="#000" fill-rule="nonzero" d="M1.692 14.372a2.268 2.268 0 0 0 1.477-.704l1.908-2.001v6.269a.39.39 0 0 1-.379.397H2.071a.39.39 0 0 1-.379-.397v-3.564zm4.654-2.705l1.804 1.88c.422.44.982.686 1.58.7v3.692c0 .22-.171.394-.378.394H6.725a.388.388 0 0 1-.379-.394v-6.272zm5.077 2.195c.134-.09.258-.193.375-.314l3.01-3.131v7.522c0 .22-.173.394-.38.394h-2.626a.387.387 0 0 1-.379-.394v-4.077zm8.208-8.029l.056.058c.047.045.111.112.198.188V17.94a.387.387 0 0 1-.38.393H16.88a.387.387 0 0 1-.379-.393V9.08l3.13-3.247zM21.813.205c.14.139.199.335.185.587l-.059 1.206c-.04.806-.081 1.607-.117 2.408-.01.187-.045.426-.24.614a.86.86 0 0 1-.19.134.674.674 0 0 1-.316.083c-.249 0-.411-.157-.529-.27l-.99-.949-8.75 8.428c-.212.2-.488.314-.786.314a1.13 1.13 0 0 1-.787-.314L5.749 9.09l-3.647 3.513c-.208.2-.484.314-.782.314a1.13 1.13 0 0 1-.787-.314l-.208-.2a1.04 1.04 0 0 1 0-1.51l4.642-4.467c.208-.2.484-.314.782-.314.299 0 .579.113.787.314l3.485 3.356 7.756-7.475a46.475 46.475 0 0 1-.674-.648l-.32-.314c-.127-.122-.394-.379-.204-.775a.648.648 0 0 1 .14-.2c.185-.178.42-.187.592-.196C18.595.118 19.874.057 21.157 0h.073c.253 0 .452.07.583.205z"/>
</svg>
