<svg xmlns="http://www.w3.org/2000/svg" width="28" height="28" viewBox="0 0 28 28">
    <g fill="none" fill-rule="evenodd">
        <path fill="#FFF" fill-opacity=".2" d="M0 0h28v28H0z"/>
        <g fill="#000" fill-rule="nonzero">
            <path d="M9.652 4C8.444 4 7.478 5.006 7.478 6.192c0 1.189.975 2.156 2.174 2.156a2.167 2.167 0 0 0 2.174-2.156C11.826 5.005 10.86 4 9.652 4zm0 3.27c-.6 0-1.087-.484-1.087-1.078 0-.604.498-1.114 1.087-1.114.59 0 1.087.51 1.087 1.114 0 .594-.487 1.078-1.087 1.078z"/>
            <path d="M22.242 4h-8.281a1.76 1.76 0 0 0-1.758 1.758v3.998l-.515-.514a1.746 1.746 0 0 0-1.243-.515H6.93A2.933 2.933 0 0 0 4 11.657v3.515a1.76 1.76 0 0 0 2.344 1.657v5.413c0 .97.788 1.758 1.758 1.758.45 0 .86-.17 1.171-.449a1.75 1.75 0 0 0 1.172.449 1.76 1.76 0 0 0 1.758-1.758v-7.756c.448.158.944.128 1.372-.085l1.973-.987h6.694A1.76 1.76 0 0 0 24 11.656V5.758A1.76 1.76 0 0 0 22.242 4zm-6.847 8.18l-2.343 1.172a.586.586 0 0 1-.677-.11l-.343-.343c-.363-.362-1-.116-1 .413v8.931a.587.587 0 0 1-1.173 0v-5.9a.586.586 0 0 0-1.172 0v5.9a.587.587 0 0 1-1.171 0v-7.071-3.516a.586.586 0 0 0-1.172 0v3.516a.587.587 0 0 1-1.172 0v-3.516c0-.969.788-1.758 1.758-1.758h3.515c.157 0 .304.061.415.172l1.746 1.747c.178.178.45.222.676.11l1.589-.795a.586.586 0 1 1 .524 1.048zm7.433-.524a.587.587 0 0 1-.586.586H16.79l.01-.03c.085-.253.11-.516.078-.773l3.204-1.602a.586.586 0 1 0-.524-1.049l-3.204 1.603a1.756 1.756 0 0 0-2.007-.307l-.972.486V5.758c0-.323.263-.586.586-.586h8.281c.323 0 .586.263.586.586v5.898z"/>
        </g>
    </g>
</svg>
