<svg xmlns="http://www.w3.org/2000/svg" width="16" height="16" viewBox="0 0 16 16">
    <path fill="#1A82F2" fill-rule="nonzero" d="M13.908 1.733C15.06 1.733 16 2.57 16 3.598v10.536C16 15.163 15.062 16 13.908 16H2.092C.94 16 0 15.163 0 14.134V3.598C0 2.57.939 1.733 2.092 1.733h.69v-.526C2.783.541 3.373 0 4.098 0s1.314.541 1.314 1.207v.526h1.35v-.526C6.76.541 7.35 0 8.074 0 8.8 0 9.389.541 9.389 1.207v.526h1.35v-.526c0-.666.588-1.207 1.314-1.207.725 0 1.314.541 1.314 1.207v.526h.54zm-2.431-.526v2.15c0 .302.258.548.576.548a.563.563 0 0 0 .576-.548v-2.15a.563.563 0 0 0-.576-.549.564.564 0 0 0-.576.55zm-3.978 0v2.15c0 .302.258.548.576.548a.564.564 0 0 0 .576-.548v-2.15a.564.564 0 0 0-.576-.549.564.564 0 0 0-.576.55zm-3.979 0v2.15c0 .302.259.548.576.548a.564.564 0 0 0 .576-.548v-2.15a.564.564 0 0 0-.576-.549.564.564 0 0 0-.576.55zm11.25 12.928V4.477H1.23v9.658c0 .423.387.768.862.768h11.816c.475 0 .861-.345.861-.768zM2.337 6.42h2.263v1.795H2.338V6.42zm3.02 0H7.62v1.795H5.358V6.42zm3.022 0h2.262v1.795H8.38V6.42zm3.019 0h2.263v1.795h-2.263V6.42zm-9.06 2.396H4.6v1.793H2.338V8.817zm3.019 0H7.62v1.793H5.358V8.817zm3.022 0h2.262v1.793H8.38V8.817zm3.019 0h2.263v1.793h-2.263V8.817zm-9.06 2.395H4.6v1.794H2.338v-1.794zm3.019 0H7.62v1.794H5.358v-1.794zm3.022 0h2.262v1.794H8.38v-1.794zm3.019 0h2.263v1.794h-2.263v-1.794z"/>
</svg>
