<svg xmlns="http://www.w3.org/2000/svg" width="16" height="16" viewBox="0 0 16 16">
    <path fill="#000" fill-rule="nonzero" d="M8.312 7a.349.349 0 0 1-.224-.07A.22.22 0 0 1 8 6.75v-1.5a.22.22 0 0 1 .088-.18.348.348 0 0 1 .224-.07h4.376c.09 0 .166.024.224.07a.22.22 0 0 1 .088.18v1.5a.22.22 0 0 1-.088.18.347.347 0 0 1-.224.07H8.312zM8.3 2a.326.326 0 0 1-.216-.07A.223.223 0 0 1 8 1.75V.25c0-.073.028-.133.084-.18A.326.326 0 0 1 8.3 0h2.4c.088 0 .16.024.216.07A.223.223 0 0 1 11 .25v1.5a.223.223 0 0 1-.084.18.325.325 0 0 1-.216.07H8.3zM5.728 12.572a.26.26 0 0 1 .195.08.287.287 0 0 1 .077.206.344.344 0 0 1-.085.214L3.199 15.92a.278.278 0 0 1-.392 0L.083 13.063a.281.281 0 0 1-.06-.313c.046-.119.131-.179.256-.179h1.635V.286c0-.084.025-.152.076-.206A.259.259 0 0 1 2.186 0h1.635a.26.26 0 0 1 .195.08.285.285 0 0 1 .077.206v12.286h1.635zM15.92 14.07c.053.047.08.107.08.18v1.5a.228.228 0 0 1-.08.18.3.3 0 0 1-.206.07H8.286a.3.3 0 0 1-.206-.07.228.228 0 0 1-.08-.18v-1.5c0-.073.027-.133.08-.18a.3.3 0 0 1 .206-.07h7.428a.3.3 0 0 1 .206.07zM8.273 11a.279.279 0 0 1-.196-.07.233.233 0 0 1-.077-.18v-1.5c0-.073.026-.133.077-.18A.279.279 0 0 1 8.273 9h5.454a.28.28 0 0 1 .196.07.233.233 0 0 1 .077.18v1.5a.233.233 0 0 1-.077.18.28.28 0 0 1-.196.07H8.273z"/>
</svg>
