<svg xmlns="http://www.w3.org/2000/svg" width="30" height="21" viewBox="0 0 30 21">
    <path fill="#FFF" fill-rule="nonzero" d="M1.053 13.992V1.279C1.053.573 1.628 0 2.337 0h12.757c.71 0 1.284.573 1.284 1.28v12.712a.427.427 0 0 1-.428.426H1.48a.427.427 0 0 1-.427-.426zm10.302 4.355A2.658 2.658 0 0 1 8.69 21a2.658 2.658 0 0 1-2.664-2.653 2.658 2.658 0 0 1 2.664-2.653 2.658 2.658 0 0 1 2.664 2.653zm-1.332 0a1.33 1.33 0 0 0-1.332-1.326 1.33 1.33 0 0 0-1.332 1.326 1.33 1.33 0 0 0 1.332 1.327 1.33 1.33 0 0 0 1.332-1.327zm-3.626-2.653H.428A.427.427 0 0 0 0 16.12v1.294c0 .235.192.426.428.426h4.784a3.496 3.496 0 0 1 1.185-2.146zm18.894 2.653A2.658 2.658 0 0 1 22.627 21a2.658 2.658 0 0 1-2.663-2.653 2.658 2.658 0 0 1 2.663-2.653 2.658 2.658 0 0 1 2.664 2.653zm-1.332 0a1.33 1.33 0 0 0-1.332-1.326 1.33 1.33 0 0 0-1.331 1.326 1.33 1.33 0 0 0 1.331 1.327 1.33 1.33 0 0 0 1.332-1.327zM30 16.12v1.294a.427.427 0 0 1-.428.426h-3.466a3.518 3.518 0 0 0-6.957 0h-6.98a3.496 3.496 0 0 0-1.184-2.146h6.617V3.498c0-.47.384-.852.857-.852H22.5c1.138 0 2.202.563 2.838 1.502l2.606 3.843c.382.564.586 1.229.586 1.91v5.793h1.042c.236 0 .428.19.428.426zm-4.343-8.03L23.574 5.14a.429.429 0 0 0-.35-.18h-3.25a.427.427 0 0 0-.428.426v2.948c0 .236.192.427.428.427h5.333c.347 0 .55-.39.35-.672z"/>
</svg>
