<svg xmlns="http://www.w3.org/2000/svg" width="30" height="25" viewBox="0 0 30 25">
    <path fill="#FFF" fill-rule="nonzero" d="M2.308 19.598a3.092 3.092 0 0 0 2.014-.96l2.601-2.729v8.549a.53.53 0 0 1-.517.542H2.824a.53.53 0 0 1-.516-.542v-4.86zm6.346-3.689l2.46 2.563c.576.6 1.339.936 2.155.955v5.035c0 .3-.235.538-.517.538H9.171a.529.529 0 0 1-.517-.538v-8.553zm6.923 2.994a3.1 3.1 0 0 0 .51-.428l4.105-4.27v10.257c0 .3-.235.538-.516.538h-3.582a.528.528 0 0 1-.517-.538v-5.56zM26.769 7.955l.076.079c.065.06.153.152.27.255v16.175A.527.527 0 0 1 26.6 25h-3.582a.527.527 0 0 1-.517-.536V12.382l4.269-4.427zM29.745.279c.19.19.27.457.252.801l-.08 1.645c-.055 1.098-.11 2.19-.16 3.283-.012.255-.062.582-.327.837-.074.071-.16.13-.258.184a.919.919 0 0 1-.432.113c-.339 0-.56-.214-.721-.368l-1.35-1.295-11.932 11.493c-.29.274-.666.428-1.073.428a1.54 1.54 0 0 1-1.072-.428L7.84 12.395l-4.974 4.791c-.284.273-.66.428-1.066.428a1.54 1.54 0 0 1-1.073-.428l-.283-.273a1.417 1.417 0 0 1 0-2.06l6.33-6.09c.283-.274.66-.428 1.066-.428.407 0 .789.154 1.072.427l4.752 4.577L24.241 3.146c-.308-.29-.617-.587-.919-.884l-.437-.428c-.173-.166-.536-.516-.278-1.056A.884.884 0 0 1 22.8.505c.252-.244.573-.256.807-.268C25.356.16 27.1.077 28.85 0h.099c.345 0 .616.095.795.279z"/>
</svg>
