<svg xmlns="http://www.w3.org/2000/svg" width="33" height="32" viewBox="0 0 33 32">
    <g fill="none" fill-rule="nonzero">
        <path fill="#FFF" d="M31.813 17.646l-.5-.657a2.017 2.017 0 0 1-.02-2.416l.486-.665c.741-1.016.397-2.429-.741-3.022l-.742-.384a2.044 2.044 0 0 1-1.098-2.168l.141-.801c.216-1.225-.734-2.358-2.022-2.41l-.842-.033c-.917-.039-1.712-.638-1.968-1.491l-.236-.781C23.914 1.619 22.553 1 21.367 1.495l-.775.32a2.187 2.187 0 0 1-2.44-.521l-.56-.606a2.186 2.186 0 0 0-3.207.026l-.553.612a2.194 2.194 0 0 1-2.433.554l-.782-.313c-1.192-.475-2.54.17-2.884 1.368l-.222.788c-.243.86-1.025 1.472-1.941 1.517l-.843.046C3.44 5.357 2.51 6.504 2.746 7.728l.155.801c.168.873-.263 1.752-1.065 2.182l-.735.397c-1.125.606-1.449 2.025-.687 3.028l.499.658c.539.716.552 1.687.02 2.416l-.485.664c-.742 1.016-.398 2.43.741 3.022l.741.384a2.044 2.044 0 0 1 1.099 2.17l-.142.8c-.215 1.224.735 2.358 2.022 2.41l.843.032c.916.04 1.711.639 1.967 1.492l.236.781c.358 1.198 1.719 1.817 2.905 1.322l.775-.319a2.187 2.187 0 0 1 2.44.521l.559.606c.863.925 2.366.918 3.208-.026l.553-.612a2.194 2.194 0 0 1 2.432-.554l.782.313c1.193.475 2.54-.17 2.885-1.368l.222-.788c.243-.86 1.024-1.472 1.94-1.517l.843-.046c1.288-.072 2.218-1.218 1.982-2.442l-.155-.801c-.169-.873.263-1.752 1.065-2.182l.734-.397c1.126-.6 1.45-2.02.688-3.029z"/>
        <path fill="#EE8A06" stroke="#EE8A06" stroke-width=".25" d="M6.37 12.79l.44.086-.133.687c.225-.227.465-.384.718-.47.253-.086.52-.102.8-.048.49.096.872.368 1.146.818.274.45.358.944.254 1.482-.107.55-.37.983-.79 1.3-.42.316-.873.427-1.36.332a1.601 1.601 0 0 1-.72-.333 1.981 1.981 0 0 1-.516-.674l-.391 2.01-.44-.086.992-5.104zm1.7.712a1.28 1.28 0 0 0-1.054.248c-.319.24-.52.576-.605 1.009-.055.284-.046.55.027.8s.206.461.398.637c.193.175.41.286.653.333.239.047.476.023.712-.07s.44-.248.61-.464a1.652 1.652 0 0 0 .296-1.51 1.427 1.427 0 0 0-.39-.652 1.28 1.28 0 0 0-.646-.33zm2.47.099l.452.088-.106.546a1.7 1.7 0 0 1 .52-.4c.171-.077.338-.1.5-.068a.776.776 0 0 1 .368.203l-.31.36a.588.588 0 0 0-.221-.11c-.148-.03-.303.009-.466.114-.163.105-.307.289-.432.552-.097.202-.208.627-.334 1.275l-.245 1.264-.453-.088.726-3.736zm3.662.612c.53.103.928.396 1.195.88.242.442.313.923.212 1.443a2.077 2.077 0 0 1-.767 1.27c-.41.326-.879.438-1.404.336a1.654 1.654 0 0 1-1.179-.837 2.077 2.077 0 0 1-.235-1.466c.1-.518.346-.936.736-1.254.43-.352.91-.476 1.442-.372zm-.092.47c-.367-.071-.71.015-1.032.26a1.582 1.582 0 0 0-.604.994c-.052.27-.041.534.034.79.075.258.202.47.382.636.18.167.392.274.637.322.245.048.482.028.711-.06.23-.087.427-.236.593-.446.165-.21.274-.45.327-.72a1.578 1.578 0 0 0-.19-1.149c-.206-.347-.493-.556-.858-.627zm2.606.118l.44.086-.125.646c.2-.209.392-.352.576-.43.252-.103.501-.13.748-.083a1.116 1.116 0 0 1 .766.554c.072.136.122.32.149.554.204-.264.432-.451.683-.56.251-.11.505-.14.76-.09.238.047.436.153.593.319.157.166.257.374.3.625.044.25.02.61-.07 1.077l-.397 2.04-.453-.088.397-2.04c.078-.4.105-.681.081-.842a.75.75 0 0 0-.63-.64.962.962 0 0 0-.63.09 1.2 1.2 0 0 0-.499.474c-.126.213-.242.588-.346 1.123l-.284 1.463-.44-.085.372-1.913c.087-.451.121-.762.1-.934a.753.753 0 0 0-.626-.676.956.956 0 0 0-.612.09 1.2 1.2 0 0 0-.501.464c-.13.21-.24.548-.33 1.015l-.308 1.584-.44-.086.726-3.737zm7.653 1.388c.53.103.928.397 1.195.881.243.442.314.922.213 1.442a2.077 2.077 0 0 1-.768 1.271c-.41.326-.878.437-1.403.335a1.654 1.654 0 0 1-1.18-.837 2.077 2.077 0 0 1-.235-1.466c.1-.517.346-.935.736-1.254.43-.351.91-.475 1.442-.372zm-.091.47c-.367-.07-.711.016-1.033.26a1.582 1.582 0 0 0-.603.994c-.053.27-.042.534.033.791.075.257.202.469.382.636.18.167.393.274.637.321.245.048.482.028.711-.06.23-.086.427-.235.593-.445.166-.21.275-.45.327-.72a1.578 1.578 0 0 0-.189-1.15c-.207-.346-.493-.555-.858-.626z"/>
    </g>
</svg>
