<svg xmlns="http://www.w3.org/2000/svg" width="82" height="76" viewBox="0 0 82 76">
    <g fill="none" fill-rule="nonzero">
        <path fill="#FFF" d="M80.602 14.97a3.909 3.909 0 0 1 .816 3.293l-5.582 26.819c-.379 1.829-2.023 3.154-3.906 3.154H22.593l1.175 5.644h47.791c1.103 0 1.995.885 1.995 1.975s-.892 1.975-1.995 1.975H23.768c-1.885 0-3.527-1.325-3.908-3.152L10.207 8.282 1.45 4.517A1.965 1.965 0 0 1 .416 1.919 2 2 0 0 1 3.039.894l8.758 3.763a3.964 3.964 0 0 1 2.318 2.826l1.254 6.033h62.14a3.99 3.99 0 0 1 3.093 1.454zM71.93 44.285l5.58-26.818H16.19l5.58 26.818h50.16z"/>
        <path fill="#1A82F2" d="M77.51 17.467L72.108 44.92H21.842l-5.65-27.454H77.51zm-14.214 8.658a2 2 0 0 0-2-2.003H32.65a2 2 0 0 0-2 2.003 2 2 0 0 0 2 2.003h28.648a2 2 0 0 0 1.999-2.003zm-1.56 10.4a2 2 0 0 0-1.999-2.003H34.208a2 2 0 0 0-1.999 2.003 2 2 0 0 0 2 2.003h25.528a2 2 0 0 0 2-2.003z"/>
        <g fill="#FFF">
            <path d="M59.246 61.302c3.96 0 7.178 3.181 7.178 7.092 0 3.91-3.219 7.092-7.178 7.092-3.958 0-7.179-3.181-7.179-7.092 0-3.91 3.22-7.092 7.179-7.092zm3.17 7.092c0-1.727-1.421-3.132-3.17-3.132-1.748 0-3.17 1.405-3.17 3.132s1.422 3.132 3.17 3.132c1.749 0 3.17-1.405 3.17-3.132zM61.013 23.96c1.108 0 2.004.888 2.004 1.98 0 1.094-.896 1.98-2.004 1.98H32.296a1.992 1.992 0 0 1-2.004-1.98c0-1.092.896-1.98 2.004-1.98h28.717z"/>
        </g>
        <path fill="#1A82F2" d="M59.31 65.308a3.069 3.069 0 0 1 3.072 3.059 3.069 3.069 0 0 1-3.072 3.059 3.07 3.07 0 0 1-3.073-3.06 3.07 3.07 0 0 1 3.073-3.058z"/>
        <g fill="#FFF">
            <path d="M59.608 34.044c1.11 0 2.008.891 2.008 1.99 0 1.098-.897 1.99-2.008 1.99H33.967a1.998 1.998 0 0 1-2.008-1.99c0-1.099.897-1.99 2.008-1.99h25.641zM34.175 61.233c3.966 0 7.193 3.197 7.193 7.127 0 3.929-3.227 7.126-7.193 7.126-3.965 0-7.192-3.197-7.192-7.126 0-3.93 3.227-7.127 7.192-7.127zm3.177 7.127c0-1.735-1.426-3.148-3.177-3.148-1.75 0-3.176 1.413-3.176 3.148s1.426 3.147 3.176 3.147c1.751 0 3.177-1.412 3.177-3.147z"/>
        </g>
        <path fill="#1A82F2" d="M34.047 65.308a3.07 3.07 0 0 1 3.073 3.059 3.07 3.07 0 0 1-3.073 3.059 3.07 3.07 0 0 1-3.072-3.06 3.07 3.07 0 0 1 3.072-3.058z"/>
    </g>
</svg>
