<svg xmlns="http://www.w3.org/2000/svg" width="28" height="28" viewBox="0 0 28 28">
    <g fill="none" fill-rule="evenodd">
        <path fill="#FFF" fill-opacity=".2" d="M0 0h28v28H0z"/>
        <path fill="#030104" fill-rule="nonzero" d="M2 5h1.41v18H2V5zm2.272 18h.794V5h-.794v18zm1.366 0h.792V5h-.792v18zm1.834 0h1.734V5H7.472v18zm3.124 0h.867V5h-.867v18zm2.212 0h3.595V5h-3.595v18zm9.369 0h1.181V5h-1.181v18zm2.212-18v18H26V5h-1.61zm-6.543 18h.773V5h-.773v18zm1.881 0h.773V5h-.773v18z"/>
        <path fill="#FFF" d="M4 9h20v11H4z"/>
        <path fill="#000" fill-rule="nonzero" stroke="#000" stroke-width=".25" d="M8 12h.542v2.097h2.742V12h.543v5h-.543v-2.413H8.542V17H8v-5zm5.131 0h1.074c.616 0 1.031.025 1.246.075.308.07.56.214.755.433.196.219.294.494.294.824 0 .334-.096.608-.286.825-.19.216-.453.362-.788.436-.245.055-.702.082-1.371.082h-.385V17h-.539v-5zm.54.486v1.7l.912.01c.369 0 .639-.031.81-.094a.821.821 0 0 0 .403-.302.795.795 0 0 0 .147-.468.785.785 0 0 0-.147-.46.799.799 0 0 0-.387-.298c-.16-.058-.422-.088-.786-.088h-.953zm3.371 0V12H20v.486h-1.202V17h-.55v-4.514h-1.206z"/>
    </g>
</svg>
