<svg xmlns="http://www.w3.org/2000/svg" width="28" height="28" viewBox="0 0 28 28">
    <g fill="none" fill-rule="evenodd">
        <path fill="#FFF" fill-opacity=".2" d="M0 0h28v28H0z"/>
        <path fill="#000" fill-rule="nonzero" d="M18.589 9.692l3.747 3.674a.776.776 0 0 1 0 1.114l-3.747 3.674a.809.809 0 0 1-.568.23.809.809 0 0 1-.568-.23.776.776 0 0 1 0-1.113l2.377-2.33H9.99a.795.795 0 0 1-.803-.788c0-.435.36-.787.803-.787h9.84l-2.377-2.33a.776.776 0 0 1 0-1.114.815.815 0 0 1 1.136 0zm-5.08 13.154H6.777c-.43 0-.777-.363-.777-.811V5.811C6 5.363 6.348 5 6.777 5h6.732c.429 0 .777.363.777.811 0 .448-.348.811-.777.811H7.554v14.602h5.955c.429 0 .777.363.777.811 0 .448-.348.811-.777.811z"/>
    </g>
</svg>
