<svg xmlns="http://www.w3.org/2000/svg" width="28" height="28" viewBox="0 0 28 28">
    <g fill="none" fill-rule="evenodd">
        <path fill="#FFF" fill-opacity=".2" d="M0 0h28v28H0z"/>
        <path fill="#1A82F2" fill-rule="nonzero" stroke="#1A82F2" stroke-width=".25" d="M14.231 14.757c-.243 1.179-1.314 2.064-2.589 2.064-1.279 0-2.346-.89-2.589-2.064H5.27a.511.511 0 0 1-.52-.507c0-.282.231-.507.52-.507h3.783c.243-1.175 1.31-2.064 2.59-2.064 1.278 0 2.345.89 2.588 2.064h8.499c.289 0 .52.225.52.507a.511.511 0 0 1-.52.507H14.23zm-4.188-.507c0 .86.717 1.558 1.6 1.558.881 0 1.598-.698 1.598-1.558 0-.86-.717-1.558-1.599-1.558s-1.599.698-1.599 1.558zm8.55-5.922c-.243 1.175-1.307 2.065-2.586 2.065s-2.346-.89-2.589-2.065H5.27a.511.511 0 0 1-.52-.507c0-.281.231-.506.52-.506h8.144c.243-1.175 1.31-2.065 2.59-2.065 1.278 0 2.346.89 2.588 2.065h4.138c.289 0 .52.225.52.506a.511.511 0 0 1-.52.507h-4.138zm-4.188-.507c0 .856.716 1.558 1.598 1.558.883 0 1.6-.698 1.6-1.558 0-.86-.717-1.557-1.6-1.557-.882 0-1.598.698-1.598 1.557zm4.188 13.364c-.242 1.18-1.306 2.065-2.584 2.065-1.28 0-2.346-.89-2.589-2.065H5.27a.511.511 0 0 1-.52-.506c0-.282.231-.507.52-.507h8.146c.243-1.175 1.31-2.065 2.589-2.065s2.346.89 2.588 2.065h4.137c.289 0 .52.225.52.507a.511.511 0 0 1-.52.506h-4.137zm-4.187-.506c0 .86.717 1.557 1.599 1.557s1.598-.698 1.598-1.557c0-.86-.716-1.558-1.598-1.558-.882 0-1.599.698-1.599 1.558z"/>
    </g>
</svg>
